<?xml version="1.0" standalone="no"?>
<!DOCTYPE svg PUBLIC "-//W3C//DTD SVG 20010904//EN"
 "http://www.w3.org/TR/2001/REC-SVG-20010904/DTD/svg10.dtd">
<svg version="1.0" xmlns="http://www.w3.org/2000/svg"
 width="434.000000pt" height="477.000000pt" viewBox="0 0 434.000000 477.000000"
 preserveAspectRatio="xMidYMid meet">

<g transform="translate(0.000000,477.000000) scale(0.100000,-0.100000)"
fill="#000000" stroke="none">
<path d="M1906 4649 c-347 -37 -702 -182 -976 -400 -620 -492 -864 -1324 -608
-2068 65 -190 164 -376 281 -531 65 -86 244 -266 332 -335 153 -120 349 -230
513 -289 96 -34 126 -34 163 3 l29 29 0 192 0 192 -27 -6 c-16 -3 -74 -9 -130
-12 -121 -8 -201 5 -290 47 -93 44 -144 100 -205 225 -54 110 -111 178 -227
273 -22 18 -41 39 -41 47 0 43 123 43 209 0 60 -31 127 -94 166 -157 40 -65
114 -137 166 -164 85 -44 217 -50 325 -15 49 16 64 28 64 51 0 32 40 127 75
177 l33 48 -82 12 c-133 19 -234 50 -341 102 -163 80 -252 167 -331 325 -55
112 -80 210 -94 368 -20 235 28 422 148 573 l39 50 -14 44 c-32 105 -26 269
14 397 19 61 32 67 122 52 103 -16 229 -70 358 -151 59 -37 64 -39 103 -28
175 47 480 63 670 36 63 -10 141 -24 173 -32 l57 -15 102 61 c156 92 333 152
401 135 63 -16 98 -310 54 -455 l-14 -44 39 -50 c120 -151 167 -334 148 -571
-13 -158 -38 -257 -96 -375 -39 -80 -61 -109 -133 -180 -131 -130 -284 -200
-522 -239 l-102 -16 25 -30 c37 -44 66 -106 83 -177 11 -49 15 -135 15 -376
l0 -314 29 -29 c37 -37 67 -37 163 -3 247 89 494 251 694 455 363 373 552 862
531 1374 -20 469 -200 891 -521 1223 -410 425 -983 633 -1570 571z"/>
<path d="M890 1985 c0 -18 24 -30 40 -20 8 5 8 11 -1 21 -15 19 -39 18 -39 -1z"/>
<path d="M965 1920 c-8 -13 13 -40 31 -40 20 0 27 19 14 35 -14 17 -36 19 -45
5z"/>
<path d="M1043 1824 c-7 -20 8 -48 29 -52 22 -4 29 22 12 47 -18 25 -32 27
-41 5z"/>
<path d="M1126 1715 c-7 -18 30 -58 47 -52 17 5 21 35 7 52 -16 19 -46 19 -54
0z"/>
<path d="M1263 1643 c-31 -12 1 -53 42 -53 24 0 31 31 10 46 -19 14 -31 16
-52 7z"/>
<path d="M1561 1631 c-21 -13 -5 -41 22 -41 27 0 52 24 42 40 -8 12 -45 13
-64 1z"/>
<path d="M1407 1606 c-8 -20 17 -38 45 -34 37 5 31 42 -8 46 -21 2 -33 -2 -37
-12z"/>
<path d="M335 715 c-84 -30 -135 -125 -135 -250 0 -123 43 -208 122 -240 60
-25 183 -24 234 1 l39 19 0 130 0 130 -90 0 -90 0 -3 -47 -3 -48 35 0 36 0 0
-50 0 -50 -46 0 c-57 0 -79 12 -101 53 -23 44 -23 160 1 205 28 54 104 75 183
53 38 -11 40 -9 49 47 6 40 6 40 -32 51 -54 15 -151 13 -199 -4z"/>
<path d="M1098 698 c-3 -11 -2 -453 1 -481 1 -4 25 -7 54 -5 l52 3 3 108 3
107 69 0 69 0 3 -107 3 -108 55 0 55 0 0 245 0 245 -57 3 -58 3 0 -91 0 -90
-70 0 -70 0 0 90 0 90 -54 0 c-34 0 -55 -5 -58 -12z"/>
<path d="M1900 460 l0 -250 35 0 c22 0 38 6 41 15 5 13 9 13 35 0 68 -36 168
-16 196 39 25 48 29 167 8 221 -23 61 -58 79 -142 72 l-63 -5 0 79 0 79 -55 0
-55 0 0 -250z m208 -8 c20 -26 15 -119 -8 -142 -21 -21 -32 -23 -68 -14 -22 6
-23 10 -20 87 3 77 4 81 28 87 30 8 51 2 68 -18z"/>
<path d="M2382 463 l3 -248 23 -3 c22 -3 22 -1 22 97 l0 101 66 0 c162 0 224
52 214 180 -3 39 -32 81 -70 101 -28 15 -57 19 -148 19 l-112 0 2 -247z m254
174 c18 -21 24 -40 24 -75 -1 -80 -32 -102 -149 -102 l-81 0 0 106 0 106 91
-4 c85 -3 92 -5 115 -31z"/>
<path d="M667 682 c-53 -58 28 -137 83 -82 27 27 26 65 -2 84 -30 21 -61 20
-81 -2z"/>
<path d="M850 600 c0 -45 -3 -50 -25 -56 -21 -5 -25 -12 -25 -45 0 -34 3 -39
24 -39 22 0 23 -3 28 -93 3 -53 11 -102 19 -114 19 -32 58 -45 120 -41 l54 3
1 37 c1 35 -2 38 -27 38 -46 0 -59 23 -59 101 l0 69 40 0 40 0 0 44 c0 44 0
45 -37 48 -38 3 -38 3 -41 51 l-3 47 -55 0 -54 0 0 -50z"/>
<path d="M650 386 c0 -182 -3 -176 71 -176 l39 0 0 170 0 170 -55 0 -55 0 0
-164z"/>
<path d="M1522 405 c3 -131 5 -146 24 -165 32 -33 92 -42 155 -25 33 8 58 10
64 4 5 -5 24 -9 42 -9 l33 0 0 170 0 170 -55 0 -55 0 0 -124 c0 -120 -1 -124
-22 -130 -35 -9 -45 -7 -62 10 -13 12 -16 39 -16 130 l0 114 -56 0 -55 0 3
-145z"/>
<path d="M2798 539 c-10 -5 -18 -16 -18 -24 0 -11 15 -12 74 -8 66 5 76 3 95
-16 11 -11 21 -32 21 -45 0 -22 -4 -24 -73 -28 -106 -7 -141 -35 -139 -112 1
-40 19 -71 49 -85 34 -16 113 -14 146 4 24 12 29 12 34 0 3 -8 11 -15 19 -15
11 0 14 25 14 124 0 140 -10 180 -51 201 -32 17 -145 20 -171 4z m172 -208 c0
-57 -1 -59 -31 -70 -76 -26 -132 -6 -132 48 0 42 22 63 75 72 91 14 88 16 88
-50z"/>
<path d="M3119 522 c-27 -24 -33 -37 -36 -83 -4 -46 -1 -60 21 -91 16 -24 21
-40 14 -44 -6 -4 -8 -21 -5 -40 5 -28 1 -39 -24 -63 -74 -74 -7 -161 124 -161
117 0 177 38 177 114 0 59 -28 82 -113 91 -106 11 -118 15 -115 37 3 16 12 20
58 22 32 2 67 10 82 20 42 27 60 103 39 159 -9 22 -7 25 20 31 17 3 29 12 29
21 0 13 -19 15 -120 15 -117 0 -120 -1 -151 -28z m159 -28 c17 -12 22 -25 22
-62 0 -26 -4 -52 -8 -59 -12 -20 -65 -35 -99 -28 -48 9 -63 29 -63 85 0 59 23
80 85 80 22 0 51 -7 63 -16z m5 -289 c37 -5 50 -12 59 -29 23 -51 -38 -96
-129 -96 -83 0 -125 39 -99 91 12 26 64 48 100 43 11 -2 43 -6 69 -9z"/>
<path d="M3491 537 c-45 -23 -65 -62 -69 -136 -5 -84 10 -132 49 -166 26 -21
41 -25 94 -25 73 0 115 13 115 34 0 13 -11 14 -64 9 -35 -3 -76 -3 -90 1 -27
7 -56 51 -56 85 0 19 7 21 112 23 l112 3 -3 50 c-3 63 -25 109 -57 124 -33 15
-113 14 -143 -2z m119 -37 c16 -9 40 -64 40 -92 0 -5 -40 -8 -90 -8 -84 0 -90
1 -90 20 0 26 26 77 42 83 23 9 79 7 98 -3z"/>
<path d="M3788 521 c-26 -23 -32 -36 -31 -66 2 -52 27 -73 103 -86 77 -14 90
-22 90 -60 0 -46 -36 -63 -120 -57 -62 5 -70 3 -70 -12 0 -22 28 -30 103 -30
90 0 137 36 137 105 0 55 -29 77 -115 90 -66 9 -85 21 -85 50 0 41 39 59 115
52 58 -4 65 -3 65 13 0 24 -20 30 -96 30 -56 0 -68 -3 -96 -29z"/>
</g>
</svg>
