<?xml version="1.0" standalone="no"?>
<!DOCTYPE svg PUBLIC "-//W3C//DTD SVG 20010904//EN"
 "http://www.w3.org/TR/2001/REC-SVG-20010904/DTD/svg10.dtd">
<svg version="1.0" xmlns="http://www.w3.org/2000/svg"
 width="640.000000pt" height="605.000000pt" viewBox="0 0 640.000000 605.000000"
 preserveAspectRatio="xMidYMid meet">

<g transform="translate(0.000000,605.000000) scale(0.100000,-0.100000)"
fill="#000000" stroke="none">
<path d="M2415 6026 c-88 -41 -142 -121 -210 -317 -70 -201 -113 -411 -135
-664 -14 -164 -25 -205 -76 -281 -89 -137 -264 -504 -305 -642 -18 -61 -28
-66 -86 -43 -70 27 -206 55 -235 48 -30 -8 -53 -55 -43 -87 10 -31 39 -45 150
-75 55 -14 108 -29 118 -31 13 -4 17 -14 15 -32 l-3 -27 -115 -7 c-204 -12
-262 -33 -262 -94 -1 -28 41 -74 65 -74 7 0 68 9 137 19 69 11 128 16 132 12
4 -4 1 -43 -8 -86 -9 -44 -19 -154 -24 -245 -8 -179 -9 -182 -94 -389 -135
-326 -199 -685 -200 -1106 0 -261 11 -377 55 -584 24 -108 23 -111 -55 -111
-59 0 -276 -43 -360 -71 -244 -82 -404 -245 -437 -446 -30 -183 69 -377 240
-467 137 -72 108 -69 886 -76 l700 -6 110 -27 c144 -34 259 -48 419 -49 91 0
160 -7 226 -21 130 -28 353 -29 463 -4 77 18 79 18 139 -2 105 -35 215 -47
314 -33 47 7 110 22 141 34 49 18 64 19 133 10 89 -11 170 -1 241 30 47 20 50
20 91 3 69 -27 312 -41 471 -27 255 24 445 83 677 212 54 29 58 30 191 30 142
0 150 2 163 46 10 33 -22 63 -81 77 l-53 12 71 80 c260 294 396 699 416 1240
15 409 -73 912 -219 1253 l-41 95 17 151 c39 363 -1 685 -139 1100 l-47 140
17 135 c40 317 -5 781 -106 1091 -41 127 -72 186 -122 237 -59 61 -110 78
-232 78 -90 -1 -112 -5 -221 -42 -145 -50 -273 -112 -386 -189 -97 -67 -148
-88 -192 -78 -17 4 -89 26 -161 50 -247 82 -438 109 -719 101 -204 -5 -342
-25 -516 -72 -52 -14 -113 -29 -136 -32 -47 -6 -76 7 -199 93 -158 110 -350
184 -474 184 -37 0 -73 -8 -106 -24z m211 -171 c96 -32 139 -54 242 -122 l83
-55 -103 -57 c-123 -69 -239 -144 -257 -165 -20 -24 -26 -20 -46 24 -36 81
-116 126 -173 97 l-28 -14 37 104 c35 96 93 195 122 206 24 10 50 7 123 -18z
m2888 -335 c52 -19 69 -69 86 -250 18 -203 -3 -320 -59 -320 -9 0 -100 88
-203 195 -199 206 -209 222 -165 263 28 26 161 90 224 107 60 16 85 18 117 5z
m-3070 -1030 c82 -40 120 -144 98 -270 -7 -39 -23 -92 -36 -118 -46 -89 -149
-163 -223 -161 l-38 2 43 6 c95 16 131 112 64 172 -68 61 -159 27 -169 -63 -5
-42 -3 -50 25 -78 36 -35 32 -39 -9 -9 -117 83 -98 348 33 480 61 61 139 75
212 39z m-428 -141 c-85 -343 -116 -605 -116 -967 0 -279 10 -409 50 -652 60
-356 207 -798 366 -1100 186 -352 380 -615 673 -912 145 -147 170 -178 210
-255 52 -99 75 -135 138 -210 l43 -52 -46 -7 c-67 -10 -206 2 -298 26 -58 15
-111 20 -200 20 -263 0 -492 48 -681 143 -114 57 -188 109 -286 204 -299 288
-459 745 -459 1308 0 440 82 835 249 1198 40 86 40 88 40 204 -1 237 65 548
173 823 46 116 130 290 138 285 4 -3 7 1 6 8 -1 14 26 88 31 83 2 -2 -12 -68
-31 -147z m2031 70 c88 -42 137 -132 138 -254 0 -71 -4 -88 -33 -147 -54 -111
-143 -169 -257 -170 -110 -1 -186 48 -233 150 -65 142 -6 326 135 413 67 42
171 45 250 8z m-1028 -397 c91 -67 15 -167 -113 -148 -56 9 -106 50 -106 88 0
29 25 66 54 79 34 15 136 3 165 -19z m1479 -181 c78 -16 150 -35 158 -42 41
-34 32 -99 -15 -119 -23 -9 -56 -5 -191 22 -146 29 -165 36 -183 59 -24 33
-16 86 16 99 35 14 63 11 215 -19z m-1213 -2530 c95 -43 158 -150 265 -451 91
-255 146 -365 225 -449 94 -99 188 -134 300 -112 27 5 51 8 53 7 8 -9 -71 -72
-118 -95 -49 -23 -67 -26 -166 -26 -107 0 -112 1 -187 38 -206 102 -354 355
-446 760 -34 150 -51 177 -114 177 l-40 0 6 42 c14 104 120 156 222 109z
m2880 -18 c-14 -82 -59 -223 -104 -323 -147 -331 -389 -553 -723 -665 -170
-57 -321 -78 -525 -73 -113 2 -176 7 -184 15 -9 9 -1 30 34 90 25 43 78 139
117 213 96 178 149 262 162 253 6 -3 8 -1 4 5 -3 6 7 32 24 58 51 81 34 29
-56 -169 -145 -322 -144 -303 -16 -293 327 27 630 159 882 385 135 120 284
318 351 465 19 42 35 75 37 76 2 0 0 -17 -3 -37z m-1595 -565 c-6 -97 -9 -181
-6 -186 7 -11 -103 -201 -149 -258 -22 -26 -49 -47 -68 -52 -18 -5 -33 -8 -35
-6 -2 1 12 24 31 51 96 134 143 275 223 668 l8 40 4 -40 c2 -22 -1 -120 -8
-217z m-2998 -70 c88 -124 155 -197 252 -275 l80 -65 -489 5 c-519 5 -548 7
-643 56 -75 39 -148 132 -152 196 -5 66 -5 65 50 44 171 -65 520 -64 669 2 67
29 120 69 137 101 8 15 18 28 22 28 4 0 37 -42 74 -92z"/>
<path d="M3807 4049 c-21 -12 -47 -61 -47 -89 0 -33 26 -75 55 -88 92 -42 186
49 141 136 -9 17 -25 36 -35 42 -25 13 -91 13 -114 -1z"/>
</g>
</svg>
